<?xml version="1.0" standalone="no"?>
<!DOCTYPE svg PUBLIC "-//W3C//DTD SVG 20010904//EN"
 "http://www.w3.org/TR/2001/REC-SVG-20010904/DTD/svg10.dtd">
<svg version="1.0" xmlns="http://www.w3.org/2000/svg"
 width="564.000000pt" height="474.000000pt" viewBox="0 0 564.000000 474.000000"
 preserveAspectRatio="xMidYMid meet">

<g transform="translate(0.000000,474.000000) scale(0.100000,-0.100000)"
fill="#000000" stroke="none">
<path d="M2235 4448 c-112 -28 -144 -40 -177 -62 -19 -13 -66 -36 -104 -51
-38 -15 -82 -34 -99 -43 -36 -18 -135 -103 -135 -116 0 -5 -16 -28 -35 -52
-19 -23 -35 -46 -35 -51 0 -5 -13 -25 -30 -43 -16 -18 -30 -39 -30 -45 0 -7
-8 -38 -19 -71 -55 -173 -53 -166 -40 -191 10 -19 9 -30 -12 -70 -13 -27 -42
-68 -65 -93 -51 -56 -82 -151 -96 -293 -10 -103 -4 -266 10 -277 4 -3 13 -30
19 -61 8 -38 21 -67 42 -90 17 -18 31 -36 31 -40 0 -3 12 -12 27 -20 14 -8 32
-29 40 -47 7 -18 25 -38 38 -44 14 -6 25 -14 25 -18 0 -4 15 -14 33 -21 17 -7
37 -20 44 -29 7 -10 45 -29 86 -44 64 -23 92 -27 193 -29 115 -2 121 -1 169
27 50 30 84 62 85 81 0 16 70 85 85 85 8 0 17 -4 20 -10 3 -5 17 -10 31 -10
14 0 50 -16 80 -35 30 -19 58 -35 62 -35 18 0 89 -87 99 -120 13 -47 7 -60
-28 -60 -24 0 -29 -4 -29 -25 0 -19 5 -25 23 -25 19 0 24 -8 33 -47 12 -50 10
-58 -38 -163 -45 -100 -52 -111 -78 -130 -17 -12 -32 -36 -40 -64 -7 -25 -21
-53 -31 -62 -11 -9 -19 -27 -19 -38 0 -12 -9 -35 -20 -53 -10 -18 -25 -53 -33
-79 l-14 -47 -19 28 c-55 79 -122 105 -276 105 -105 0 -141 -12 -80 -26 68
-17 115 -81 146 -201 22 -83 21 -96 -3 -83 -28 14 -92 12 -121 -5 -14 -8 -34
-14 -45 -15 -32 0 -68 -106 -70 -205 -1 -44 -5 -94 -9 -111 -5 -22 -3 -34 8
-43 8 -7 18 -38 21 -69 5 -39 13 -62 27 -73 14 -11 21 -33 26 -84 6 -62 10
-71 33 -82 15 -8 30 -25 34 -40 8 -33 74 -98 178 -176 41 -31 77 -61 79 -65 4
-12 128 -72 147 -72 9 0 29 -7 45 -15 15 -8 38 -15 50 -15 12 0 30 -6 41 -13
16 -12 11 -16 -51 -32 -38 -9 -98 -21 -134 -26 -36 -5 -82 -11 -102 -15 -20
-3 -52 -1 -72 6 -31 10 -41 8 -88 -14 -29 -13 -80 -29 -113 -35 -132 -22 -170
-22 -105 0 17 6 30 15 30 20 0 5 8 9 18 9 9 0 28 10 42 21 l25 21 -24 -6 c-13
-2 -31 0 -41 7 -19 11 -37 6 -156 -50 -35 -17 -66 -23 -100 -22 -27 1 -75 -3
-107 -10 -32 -7 -66 -9 -77 -6 -10 3 -34 -2 -52 -11 -31 -16 -32 -18 -12 -26
14 -6 51 -4 110 6 85 15 90 15 104 -4 11 -14 30 -19 80 -21 36 -1 76 2 90 8
29 12 135 33 168 33 13 0 25 -7 28 -15 23 -59 307 -46 554 25 67 20 107 28
266 55 152 25 157 12 9 -24 -20 -4 -31 -14 -33 -29 -3 -18 2 -22 27 -23 17 -1
46 -2 64 -4 17 -1 66 2 107 7 119 14 211 12 245 -5 25 -13 52 -14 175 -6 212
13 244 17 360 38 58 11 159 29 225 41 125 22 264 62 303 88 12 8 22 21 22 30
0 13 -2 13 -17 0 -38 -31 -130 -61 -258 -83 -49 -9 -110 -20 -135 -25 -119
-25 -544 -61 -529 -45 3 2 41 10 85 15 43 6 108 20 144 30 36 10 85 23 110 29
134 30 160 40 160 63 0 15 -221 2 -300 -17 -36 -9 -90 -22 -120 -29 -30 -7
-82 -23 -115 -34 -89 -31 -355 -65 -355 -45 0 5 25 17 56 28 62 21 85 48 57
64 -14 8 -11 10 19 9 25 -1 51 8 85 30 27 18 65 35 84 39 19 3 68 23 109 43
41 21 92 40 113 44 36 7 69 31 187 139 55 50 124 136 134 165 5 15 17 38 26
52 32 45 60 109 60 133 0 13 9 36 21 51 11 15 18 33 16 41 -3 7 3 25 13 38 33
42 19 179 -22 224 -21 23 -83 46 -148 57 -29 5 -43 1 -70 -19 -19 -14 -38 -25
-43 -25 -16 0 -57 -38 -100 -93 -58 -75 -105 -113 -124 -101 -8 5 -24 35 -35
66 l-19 57 32 40 c36 45 63 159 47 201 -5 12 -6 44 -2 70 5 36 1 58 -16 98
-12 28 -28 57 -36 63 -8 6 -14 20 -14 31 0 11 -11 34 -25 52 -14 18 -25 40
-25 49 0 8 -12 30 -27 47 -30 36 -50 70 -88 150 -15 30 -34 63 -43 73 -18 21
-40 75 -52 131 -5 23 -18 47 -35 60 -26 21 -28 27 -29 110 l-1 89 60 38 c33
21 67 41 75 45 8 3 69 32 135 64 117 58 150 67 350 103 103 19 244 95 289 155
58 80 80 95 120 88 53 -10 116 11 159 52 36 35 37 38 37 108 l0 71 -44 41
c-29 27 -57 43 -83 47 -59 10 -63 13 -63 42 0 16 -7 38 -15 50 -8 12 -17 39
-20 60 -3 23 -12 43 -25 52 -11 7 -20 21 -20 30 0 10 -12 28 -26 42 -14 13
-35 41 -47 61 -11 21 -24 38 -28 38 -4 0 -22 14 -40 31 -52 48 -137 106 -209
140 -88 43 -198 61 -365 63 -82 1 -148 6 -160 12 -11 6 -42 15 -69 19 -42 6
-58 15 -108 62 -32 31 -58 62 -58 69 0 7 -12 22 -26 33 -32 25 -24 41 22 41
19 0 34 4 34 9 0 15 -73 21 -111 10 -32 -10 -41 -8 -81 15 -25 14 -59 26 -77
26 -18 0 -56 11 -84 23 -92 42 -266 58 -362 35z m196 -58 c24 -11 62 -20 84
-20 22 0 49 -7 59 -15 11 -8 38 -15 60 -15 23 0 60 -10 84 -22 38 -21 42 -26
36 -52 -6 -27 -5 -28 25 -21 36 8 62 -8 143 -89 26 -25 53 -46 59 -46 7 0 23
-9 35 -21 13 -13 39 -22 68 -24 26 -2 62 -9 80 -15 19 -6 56 -10 82 -9 27 1
108 -4 179 -10 142 -12 229 -37 280 -80 17 -14 48 -34 70 -44 22 -10 48 -31
57 -47 9 -17 28 -35 41 -41 13 -6 34 -31 46 -57 12 -25 38 -64 56 -87 22 -26
37 -57 41 -85 4 -25 11 -51 17 -58 5 -6 7 -26 3 -43 -3 -18 -2 -37 3 -43 6 -7
6 -27 1 -51 -5 -22 -10 -58 -10 -80 0 -22 -7 -53 -15 -69 -8 -15 -15 -33 -15
-38 0 -5 -27 -42 -59 -81 -51 -61 -70 -76 -128 -101 -37 -16 -76 -36 -86 -45
-12 -10 -51 -19 -110 -24 -125 -10 -133 -12 -205 -31 -35 -9 -90 -16 -123 -16
-33 0 -67 -5 -77 -11 -13 -8 -27 -7 -56 5 -21 9 -53 16 -70 16 -39 1 -103 23
-124 44 -9 9 -29 26 -44 37 -19 14 -30 33 -34 60 -10 62 -28 68 -60 19 -23
-35 -25 -43 -13 -51 8 -5 20 -9 27 -9 6 0 12 -5 12 -11 0 -22 41 -67 67 -74
16 -3 44 -19 63 -33 26 -20 47 -27 80 -28 26 0 51 -4 58 -8 7 -4 40 -7 74 -8
35 0 67 -3 71 -5 13 -8 -45 -43 -70 -43 -28 0 -103 -29 -103 -40 0 -4 -17 -24
-37 -44 l-37 -36 -2 -102 -2 -103 -174 -3 -175 -3 -12 45 c-11 47 -113 176
-139 176 -7 0 -34 11 -60 24 -26 13 -70 27 -99 31 l-52 7 6 66 c3 37 9 71 14
77 5 5 9 35 9 66 0 32 4 69 10 84 7 19 6 33 -4 53 -7 15 -24 56 -36 92 -13 36
-36 81 -51 100 -16 19 -29 39 -29 44 0 5 -16 26 -35 47 -19 22 -35 43 -35 48
0 9 -53 31 -76 31 -23 0 -16 -17 31 -72 95 -113 106 -127 130 -162 14 -21 25
-47 25 -59 0 -12 9 -39 20 -59 16 -30 18 -43 9 -65 -5 -14 -9 -50 -8 -79 1
-29 -3 -59 -9 -67 -6 -7 -16 -37 -23 -66 -9 -45 -21 -62 -84 -125 -68 -68 -77
-74 -135 -85 -70 -14 -179 -7 -225 14 -16 8 -55 25 -85 38 -30 14 -72 42 -93
63 -112 115 -159 173 -176 219 -18 49 -37 155 -33 185 1 8 4 57 7 109 6 110
16 143 84 273 75 144 91 200 91 315 0 94 1 98 29 128 30 31 71 94 115 176 17
31 34 49 51 53 14 4 25 10 25 15 0 17 31 41 53 41 12 0 49 14 82 30 33 17 69
30 81 30 12 0 27 6 33 14 13 15 93 48 156 64 70 17 159 14 206 -8z m1781 -981
c16 -19 28 -47 31 -72 5 -51 -8 -71 -18 -27 -9 39 -63 67 -95 50 -18 -10 -20
-7 -20 20 0 17 5 40 11 52 15 27 56 17 91 -23z m-67 -179 c-3 -5 -11 -10 -16
-10 -6 0 -7 5 -4 10 3 6 11 10 16 10 6 0 7 -4 4 -10z m-1107 -854 c41 -28 82
-81 82 -106 0 -6 10 -26 23 -43 12 -18 29 -48 38 -68 9 -19 33 -58 54 -85 43
-55 102 -176 111 -226 4 -18 12 -42 19 -53 35 -58 44 -228 13 -259 -10 -10
-18 -28 -18 -41 0 -15 -11 -32 -30 -45 -35 -25 -40 -61 -10 -81 14 -10 22 -30
26 -64 3 -27 9 -59 14 -70 5 -11 10 -29 12 -39 4 -27 30 -40 62 -32 34 8 86
63 86 89 0 11 19 39 43 62 23 24 49 54 58 67 20 29 134 98 162 98 28 0 103
-51 116 -78 17 -35 13 -102 -9 -162 -39 -109 -58 -154 -66 -157 -5 -2 -17 9
-26 25 -10 15 -22 34 -27 42 -6 8 -17 32 -25 53 -18 45 -30 47 -51 7 -19 -37
-19 -40 5 -40 11 0 20 -4 20 -8 0 -4 16 -32 35 -62 40 -62 43 -87 15 -120 -11
-13 -20 -28 -20 -35 0 -6 -16 -28 -35 -49 -34 -37 -34 -37 -58 -20 -13 10 -32
35 -42 56 -23 48 -36 60 -55 48 -13 -8 -12 -14 4 -45 11 -19 35 -53 53 -75 40
-46 38 -52 -34 -108 -53 -42 -112 -72 -143 -72 -9 0 -34 -14 -55 -30 -21 -16
-43 -30 -49 -30 -10 0 -84 -30 -210 -85 -41 -17 -82 -16 -157 7 l-37 11 23 51
c12 28 26 67 29 86 19 91 36 125 87 169 l51 44 -6 51 c-4 28 -2 78 4 110 18
113 -6 135 -86 80 -48 -33 -62 -38 -132 -42 -69 -4 -86 -1 -157 27 -44 17 -94
31 -111 31 -26 0 -34 -6 -49 -40 -10 -22 -26 -47 -36 -56 -26 -24 -24 -43 7
-54 55 -21 154 -73 154 -80 0 -5 21 -21 48 -38 74 -45 162 -135 162 -165 0
-38 -47 -133 -75 -151 -14 -9 -38 -19 -55 -22 -28 -6 -30 -4 -55 52 -14 33
-32 70 -40 84 -8 14 -26 46 -40 73 -14 26 -32 47 -40 47 -22 0 -19 -9 26 -103
22 -47 43 -104 46 -126 l6 -41 -54 0 c-102 0 -125 8 -142 49 -21 53 -37 105
-37 123 0 19 -45 58 -66 58 -20 0 -17 -30 5 -54 18 -21 46 -114 37 -124 -9 -9
-122 45 -172 83 -27 20 -75 59 -107 87 -32 29 -70 59 -86 69 -15 9 -34 32 -41
50 -7 19 -21 43 -30 54 -9 11 -22 49 -28 83 -8 46 -18 70 -37 87 -14 13 -25
33 -25 44 0 12 -5 40 -11 63 -9 31 -9 70 -2 143 10 96 12 100 47 132 65 60
161 37 158 -39 -1 -31 6 -41 65 -93 59 -53 71 -59 119 -63 98 -8 121 28 91
144 -11 40 -11 56 0 80 6 16 12 47 13 69 0 22 9 60 20 84 11 24 20 60 20 80 1
20 8 54 16 76 9 22 21 70 28 107 6 37 17 73 24 80 6 6 12 16 12 20 0 4 16 30
35 57 19 26 35 55 35 62 0 8 14 38 30 68 17 30 30 62 30 72 0 10 4 20 9 23 5
3 12 21 15 41 6 29 12 35 39 40 50 8 95 10 197 9 87 0 99 -2 138 -28z m-883
-555 c63 -28 115 -107 128 -194 5 -34 4 -36 -13 -27 -10 6 -22 15 -25 20 -9
15 -22 12 -29 -6 -4 -9 0 -26 7 -38 8 -12 19 -35 25 -53 10 -29 8 -32 -14 -37
-43 -11 -84 35 -99 110 -3 17 -21 73 -40 124 -19 51 -35 99 -35 106 0 20 47
17 95 -5z m163 -405 c2 -2 5 -20 8 -40 3 -27 0 -38 -15 -46 -16 -8 -27 -3 -63
26 -61 51 -61 51 -53 64 5 9 24 10 63 6 31 -4 58 -8 60 -10z m391 -352 c13
-10 57 -20 100 -25 72 -7 95 -4 227 26 19 4 23 -1 28 -40 10 -61 -9 -123 -39
-137 -14 -6 -34 -26 -45 -45 -22 -38 -33 -41 -52 -14 -7 10 -45 39 -84 64 -40
26 -74 53 -77 62 -4 8 -31 27 -62 42 -53 26 -73 51 -60 73 9 15 38 12 64 -6z
m205 -569 c3 -8 14 -15 25 -15 30 0 35 -19 9 -29 -13 -5 -50 -13 -83 -19 -33
-6 -109 -20 -170 -31 -60 -12 -132 -25 -160 -30 -27 -5 -70 -16 -95 -25 -43
-15 -130 -22 -117 -10 3 3 32 12 64 19 111 25 175 45 235 75 33 17 85 33 117
36 31 4 62 11 69 17 11 9 61 24 88 26 7 1 14 -6 18 -14z m796 -34 c-24 -14
-238 -53 -268 -49 -20 3 -12 7 33 16 33 7 76 19 95 27 38 15 166 20 140 6z
m-1130 -21 c0 -5 -8 -10 -18 -10 -10 0 -26 -6 -37 -13 -29 -20 -80 -36 -165
-53 -106 -20 -126 -16 -50 9 36 12 72 26 80 31 7 6 50 17 95 27 101 21 95 21
95 9z m-467 -101 c-44 -30 -98 -22 -60 9 16 13 47 19 70 14 16 -4 14 -7 -10
-23z"/>
<path d="M3011 3779 c-11 -29 -21 -72 -21 -96 0 -42 1 -44 27 -41 27 3 53 38
66 87 6 22 -29 101 -44 101 -4 0 -16 -23 -28 -51z"/>
<path d="M1696 3618 c-8 -13 -21 -46 -29 -74 -15 -50 -71 -159 -88 -169 -4 -3
-2 10 6 29 8 20 15 55 15 78 0 24 4 57 8 73 9 31 6 55 -7 55 -13 0 -41 -82
-84 -240 -49 -185 -50 -200 -13 -218 28 -14 28 -15 23 -79 -5 -52 -2 -74 12
-102 10 -20 22 -51 26 -69 5 -25 15 -36 35 -44 21 -7 33 -21 43 -51 14 -42 22
-48 90 -62 15 -3 36 -14 47 -25 13 -13 34 -20 61 -20 22 0 49 -5 60 -11 27
-14 154 6 189 29 14 10 38 24 53 32 40 20 61 64 52 109 -3 20 -10 83 -14 141
-10 125 -22 189 -51 252 -24 54 -53 76 -76 58 -18 -16 -23 -3 -26 75 l-3 60
-33 0 c-24 0 -38 8 -56 29 -13 17 -38 35 -57 41 -28 10 -35 18 -45 60 -17 64
-47 85 -63 43 l-8 -22 -12 22 c-15 28 -37 28 -55 0z m102 -338 c-2 -33 -6 -60
-9 -60 -12 0 -26 76 -18 98 16 42 29 23 27 -38z m138 18 c22 -44 51 -175 41
-184 -13 -13 -27 10 -27 43 0 24 -8 45 -21 60 -22 23 -40 123 -23 123 5 0 19
-19 30 -42z m-360 -50 c-3 -13 -6 -27 -6 -31 0 -5 -4 -5 -10 -2 -17 10 -12 55
6 55 12 0 15 -6 10 -22z m510 -15 c-10 -10 -19 5 -10 18 6 11 8 11 12 0 2 -7
1 -15 -2 -18z m34 -112 c13 -25 13 -34 0 -26 -16 10 -32 45 -21 45 6 0 15 -9
21 -19z m-310 -41 c0 -19 -5 -30 -14 -30 -20 0 -32 40 -15 51 23 15 29 10 29
-21z m-160 -126 c0 -24 -4 -44 -10 -44 -12 0 -24 65 -16 86 11 28 26 4 26 -42z
m320 14 c-1 -21 -47 -102 -52 -92 -3 5 -8 21 -12 36 -5 21 -1 30 22 47 31 24
42 26 42 9z m-215 -89 c8 -35 3 -44 -20 -36 -15 6 -21 48 -8 60 13 14 22 6 28
-24z m389 -76 c-26 -19 -29 0 -7 34 l18 27 3 -24 c3 -15 -3 -29 -14 -37z"/>
<path d="M2587 1963 c-22 -40 -40 -127 -38 -192 2 -64 5 -79 23 -92 l21 -17
-32 -58 c-29 -50 -32 -64 -27 -103 12 -90 105 -190 178 -191 13 -1 34 -7 48
-15 37 -21 83 -18 136 10 26 14 59 25 74 25 29 0 72 41 110 104 18 30 23 52
22 102 -1 36 -5 70 -9 77 -4 7 -11 46 -15 87 -12 126 -46 217 -62 163 -9 -31
-10 -98 -2 -111 7 -12 24 -119 32 -207 5 -59 -24 -127 -69 -159 l-29 -21 -19
24 c-11 14 -19 39 -19 62 0 28 -4 39 -15 39 -12 0 -15 -14 -15 -65 0 -55 -3
-66 -21 -75 -36 -20 -175 6 -200 37 -11 13 -11 17 -1 21 28 9 42 35 42 78 0
24 -4 44 -9 44 -5 0 -21 -20 -35 -45 -15 -25 -31 -45 -37 -45 -17 0 -41 71
-35 103 3 16 15 41 26 57 11 15 20 37 20 48 0 11 7 25 15 32 23 19 19 49 -5
43 -40 -11 -47 9 -42 132 4 104 1 130 -11 108z"/>
</g>
</svg>
